# xmcd CD database file
#
# Track frame offsets:
#	150
#	22870
#	24852
#	46970
#	66532
#	84035
#	109170
#	130147
#	144597
#	160807
#	179590
#	209027
#
# Disc length: 3153 seconds
#
# Revision: 1
# Processed by: cddbd v1.5.1PL0 Copyright (c) Steve Scherf et al.
# Submitted via: CDex 1.60beta1
#
DISCID=a00c4f0c
DTITLE=LOST IN TIME - きのうのこと
DYEAR=2004
DGENRE=Rock
TTITLE0=ヒカリ
TTITLE1=se 帰路
TTITLE2=教会通り
TTITLE3=ココロノウタ
TTITLE4=イロノナイセカイ
TTITLE5=列車
TTITLE6=あなたは生きている
TTITLE7=誰かはいらない
TTITLE8=悲しいうた
TTITLE9=やっと言えた言葉
TTITLE10=昨日の事
TTITLE11=北風と太陽
EXTD=YEAR: 2004
EXTT0=
EXTT1=
EXTT2=
EXTT3=
EXTT4=
EXTT5=
EXTT6=
EXTT7=
EXTT8=
EXTT9=
EXTT10=
EXTT11=
PLAYORDER=
